<svg width="166" height="22" viewBox="0 0 166 22" fill="none" xmlns="http://www.w3.org/2000/svg">
<path d="M48 0L50.4697 7.60081H58.4616L51.996 12.2984L54.4656 19.8992L48 15.2016L41.5344 19.8992L44.004 12.2984L37.5384 7.60081H45.5303L48 0Z" fill="#FFE500"/>
<path d="M82 0L84.4697 7.60081H92.4616L85.996 12.2984L88.4656 19.8992L82 15.2016L75.5344 19.8992L78.004 12.2984L71.5384 7.60081H79.5303L82 0Z" fill="#FFE500"/>
<path d="M11 0L13.4697 7.60081H21.4616L14.996 12.2984L17.4656 19.8992L11 15.2016L4.53436 19.8992L7.00402 12.2984L0.538379 7.60081H8.53035L11 0Z" fill="#FFE500"/>
<path d="M119 0L121.47 7.60081H129.462L122.996 12.2984L125.466 19.8992L119 15.2016L112.534 19.8992L115.004 12.2984L108.538 7.60081H116.53L119 0Z" fill="#FFE500"/>
<path d="M155 0L157.47 7.60081H165.462L158.996 12.2984L161.466 19.8992L155 15.2016L148.534 19.8992L151.004 12.2984L144.538 7.60081H152.53L155 0Z" fill="#FFE500"/>
</svg>
