<svg xmlns="http://www.w3.org/2000/svg" version="1.1" xmlns:xlink="http://www.w3.org/1999/xlink" xmlns:svgjs="http://svgjs.dev/svgjs" width="1920" height="400" preserveAspectRatio="none" viewBox="0 0 1920 400"><g mask="url(&quot;#SvgjsMask1159&quot;)" fill="none"><path d="M1105.347,265.278C1139.715,266.052,1173.801,249.594,1189.804,219.169C1204.946,190.382,1194.498,156.458,1177.013,129.032C1161.027,103.956,1135.08,87.221,1105.347,86.695C1074.652,86.152,1045.069,100.166,1029.15,126.416C1012.641,153.639,1011.912,187.598,1027.228,215.51C1043.147,244.521,1072.263,264.533,1105.347,265.278" fill="rgba(255, 170, 0, 0.4)" class="triangle-float1"></path><path d="M481.991,386.93C515.98,387.086,550.164,375.207,568.002,346.275C586.671,315.994,584.79,278.299,568.446,246.702C550.522,212.05,520.989,181.068,481.991,179.996C441.504,178.884,405.342,205.655,386.897,241.713C369.927,274.889,376.922,314.317,397.337,345.492C415.784,373.662,448.318,386.775,481.991,386.93" fill="rgba(255, 170, 0, 0.4)" class="triangle-float1"></path><path d="M865.308,151.452C880.895,151.399,894.743,142.506,902.82,129.175C911.229,115.296,914.556,97.822,906.247,83.882C898.093,70.202,881.233,66.414,865.308,66.244C848.995,66.07,831.227,69.006,822.827,82.991C814.243,97.281,818.565,115.266,827.354,129.431C835.62,142.752,849.631,151.505,865.308,151.452" fill="rgba(255, 170, 0, 0.4)" class="triangle-float3"></path><path d="M1456.2895342871009 245.16249148887172L1331.0704274795387 249.4157609899642 1387.479622158112 343.2964263094301z" fill="rgba(255, 170, 0, 0.4)" class="triangle-float3"></path><path d="M919.2275554142146 301.93324076941246L995.6595970204146 366.06733869130136 1059.7936949423035 289.6352970851014 983.3616533361035 225.5011991632125z" fill="rgba(255, 170, 0, 0.4)" class="triangle-float1"></path><path d="M1183.934,187.483C1219.448,185.966,1245.861,157.663,1262.257,126.124C1277.242,97.3,1278.24,63.942,1263.105,35.196C1246.787,4.201,1218.958,-22.087,1183.934,-22.64C1148.128,-23.205,1118.337,1.682,1100.316,32.627C1082.16,63.804,1075.951,101.607,1093.093,133.352C1111.043,166.594,1146.189,189.096,1183.934,187.483" fill="rgba(255, 170, 0, 0.4)" class="triangle-float2"></path><path d="M1679.7372041527094 291.53708158571743L1740.3337864501566 286.2355675862751 1735.0322724507143 225.63898528882783 1674.4356901532672 230.94049928827016z" fill="rgba(255, 170, 0, 0.4)" class="triangle-float3"></path><path d="M124.7535820280871 171.95931538964587L103.67529796938312 263.25939426123045 194.97537684096767 284.3376783199344 216.05366089967166 193.03759944834985z" fill="rgba(255, 170, 0, 0.4)" class="triangle-float3"></path><path d="M315.847,155.434C344.525,155.826,365.36,130.782,378.563,105.321C390.586,82.135,392.443,55.044,379.737,32.225C366.678,8.773,342.69,-7.223,315.847,-7.311C288.861,-7.399,264.037,8.052,251.232,31.806C239.027,54.448,244.121,80.848,256.036,103.644C269.129,128.695,287.584,155.047,315.847,155.434" fill="rgba(255, 170, 0, 0.4)" class="triangle-float2"></path><path d="M794.8301079417206 398.4849826195939L854.8407171131526 377.82167279153583 834.1774072850945 317.8110636201039 774.1667981136625 338.47437344816194z" fill="rgba(255, 170, 0, 0.4)" class="triangle-float1"></path><path d="M1589.6432890382227 399.29568804495995L1647.0103883887834 431.09479047056595 1666.0254923519121 329.1445902319218z" fill="rgba(255, 170, 0, 0.4)" class="triangle-float3"></path><path d="M1367.7507092186547 47.825844653589506L1328.1375749150632 145.87179259102302 1426.1835228524967 185.48492689461457 1465.7966571560883 87.43897895718104z" fill="rgba(255, 170, 0, 0.4)" class="triangle-float1"></path><path d="M74.257,131.805C99.828,132.998,126.519,125.769,140.404,104.263C155.378,81.071,154.768,51.443,141.92,27.009C128.074,0.676,104.008,-21.496,74.257,-21.532C44.458,-21.568,18.954,-0.139,6.312,26.846C-4.7,50.351,3.894,76.764,18,98.554C30.687,118.153,50.935,130.717,74.257,131.805" fill="rgba(255, 170, 0, 0.4)" class="triangle-float1"></path><path d="M1202.7264244124526 219.01760316690138L1281.137700349839 205.19157962736375 1267.3116768103014 126.7803036899774 1188.900400872915 140.60632722951505z" fill="rgba(255, 170, 0, 0.4)" class="triangle-float2"></path><path d="M1793.2401678166648 149.06254787006486L1822.2242264461004 65.14661244058287 1745.7952320299435 78.62310626456795z" fill="rgba(255, 170, 0, 0.4)" class="triangle-float1"></path><path d="M103.24982040698222 104.04331542362249L59.49643802029105 202.31502124682387 157.76814384349245 246.06840363351503 201.5215262301836 147.79669781031367z" fill="rgba(255, 170, 0, 0.4)" class="triangle-float3"></path><path d="M389.634,576.025C431.283,578.121,467.827,550.29,488.598,514.129C509.283,478.117,514.462,432.817,491.927,397.933C470.839,365.289,428.497,360.897,389.634,360.934C350.861,360.971,307.056,364.545,287.681,398.13C268.313,431.703,287.27,471.338,306.542,504.966C325.965,538.856,350.622,574.061,389.634,576.025" fill="rgba(255, 170, 0, 0.4)" class="triangle-float3"></path><path d="M1866.9328456547669 106.11535751790689L1920.9830699340268 22.885310863954203 1783.7027990008141 52.06513323864696z" fill="rgba(255, 170, 0, 0.4)" class="triangle-float2"></path><path d="M1127.2781495870709 71.33551573712438L1094.8691339227137-17.707522987448 1005.8260951981413 14.701492676909155 1038.2351108624985 103.74453140148154z" fill="rgba(255, 170, 0, 0.4)" class="triangle-float2"></path><path d="M1394.5878756680281-68.2403839479183L1333.7290357058878 18.67504703664973 1420.6444666904558 79.53388699879002 1481.5033066525962-7.381543985777995z" fill="rgba(255, 170, 0, 0.4)" class="triangle-float1"></path></g><defs><mask id="SvgjsMask1159"><rect width="1920" height="400" fill="#ffffff"></rect></mask><style>
                @keyframes float1 {
                    0%{transform: translate(0, 0)}
                    50%{transform: translate(-10px, 0)}
                    100%{transform: translate(0, 0)}
                }

                .triangle-float1 {
                    animation: float1 5s infinite;
                }

                @keyframes float2 {
                    0%{transform: translate(0, 0)}
                    50%{transform: translate(-5px, -5px)}
                    100%{transform: translate(0, 0)}
                }

                .triangle-float2 {
                    animation: float2 4s infinite;
                }

                @keyframes float3 {
                    0%{transform: translate(0, 0)}
                    50%{transform: translate(0, -10px)}
                    100%{transform: translate(0, 0)}
                }

                .triangle-float3 {
                    animation: float3 6s infinite;
                }
            </style></defs></svg>